<!--?xml version="1.0" standalone="no"?-->
<svg id="sw-js-blob-svg" viewBox="0 0 100 100" xmlns="http://www.w3.org/2000/svg" version="1.1">
 <defs>
  <linearGradient id="sw-gradient" x1="0" x2="1" y1="1" y2="0">
   <stop id="stop1" stop-color="rgba(248, 117, 55, 1)" offset="0%"></stop>
   <stop id="stop2" stop-color="rgba(251, 168, 31, 1)" offset="100%"></stop>
  </linearGradient>
 </defs>
 <path fill="url(#sw-gradient)" d="M23.4,-24C31,-21.6,38,-14.8,39.4,-7C40.7,0.8,36.3,9.6,31.3,17.8C26.2,25.9,20.6,33.5,12.8,37.2C5,40.9,-4.9,40.8,-12.4,36.9C-20,33,-25.1,25.2,-29.5,17.2C-34,9.2,-37.7,1,-34.9,-4.7C-32.1,-10.3,-22.8,-13.2,-15.9,-15.7C-9,-18.1,-4.5,-20.1,1.7,-22.1C8,-24.2,15.9,-26.3,23.4,-24Z" transform="translate(50 50)" stroke-width="0" style="transition: all 0.3s ease 0s;"></path>
</svg>